<mxfile host="app.diagrams.net" modified="2023-03-24T08:26:06.922Z" agent="Mozilla/5.0 (Windows NT 10.0; Win64; x64) AppleWebKit/537.36 (KHTML, like Gecko) Chrome/107.0.0.0 Safari/537.36" version="21.1.0" etag="ijGB79UR3_0IRzUDEmKx" type="github">
  <diagram name="第 1 页" id="62vCOWgScsmzAZxwTpd8">
    <mxGraphModel>
      <root>
        <mxCell id="0" />
        <mxCell id="1" parent="0" />
      </root>
    </mxGraphModel>
  </diagram>
</mxfile>
